<svg width="98" height="26" viewBox="0 0 98 26" fill="none" xmlns="http://www.w3.org/2000/svg">
<g clip-path="url(#clip0_50_34)">
<path fill-rule="evenodd" clip-rule="evenodd" d="M68.0703 1.87386C68.3443 1.99795 68.2754 2.37169 68.3113 2.65054C68.2754 3.73965 68.3442 5.01418 68.3113 6.07117C67.9671 6.16461 67.7262 5.85364 67.4824 5.69888C65.0674 3.95864 61.3086 3.02429 58.3429 4.42437C55.8218 5.54414 54.2027 7.75156 53.477 10.1751C52.5807 14.4351 53.5803 19.0368 57.1684 21.7114C59.2722 23.3276 62.7226 23.5758 65.3441 22.675C66.619 22.2385 67.7247 21.5231 68.9294 20.9961C69.0699 21.4326 68.862 21.8341 68.8261 22.2706C68.5522 23.1086 68.4145 24.0444 68.1707 24.9145C67.6215 25.2562 66.8958 25.3511 66.2404 25.4737C63.0668 26.0956 59.1675 26.0635 56.3395 24.7291C52.6481 23.2035 49.7856 20.0646 49.1303 16.425C47.9572 11.5751 49.8559 6.69164 53.8556 3.58344C57.5843 0.942423 63.4798 0.412469 68.0703 1.87386ZM97.5008 11.7328C96.9831 8.56036 95.3196 5.63757 92.5073 3.45935C89.956 1.47092 86.5157 0.754096 82.853 0.87819C77.6013 1.09572 73.1614 4.39224 71.462 8.31071C70.2043 11.1079 70.1283 14.7461 71.3501 17.5433C72.6838 21.2764 76.7136 24.4152 81.1536 25.5043C85.7412 26.4679 90.3633 25.1306 93.2874 22.3334C96.464 19.596 97.8708 15.8352 97.5008 11.7328ZM91.1764 19.4427C89.6606 21.8355 86.5515 23.2035 83.1126 22.8297C80.633 22.5509 78.8217 21.2443 77.4522 19.5332C75.3068 16.8294 74.6428 13.2861 75.2709 9.89474C75.7169 6.91063 78.489 4.48422 81.8921 3.80097C85.2952 3.11772 88.6252 4.26669 90.4379 6.50769L91.5106 8.06106C93.5068 11.4189 93.0996 16.1462 91.1764 19.4427ZM19.8389 1.87386C20.1157 1.99795 20.0468 2.37169 20.0827 2.65054C20.0468 3.73965 20.1157 5.01418 20.0827 6.07117C19.7356 6.16461 19.4947 5.85364 19.2538 5.69888C16.8388 3.95864 13.0771 3.02429 10.1114 4.42437C7.59316 5.54414 5.97406 7.75156 5.24841 10.1751C4.3521 14.4351 5.35167 19.0368 8.93976 21.7114C11.0436 23.3276 14.494 23.5758 17.1155 22.675C18.3905 22.2385 19.4933 21.5231 20.7008 20.9961C20.8413 21.4326 20.6334 21.8341 20.5975 22.2706C20.3236 23.1086 20.1859 24.0444 19.9421 24.9145C19.39 25.2562 18.6672 25.3511 18.0119 25.4737C14.8382 26.0956 10.9389 26.0635 8.11085 24.7291C4.4195 23.2035 1.55705 20.0646 0.901667 16.425C-0.271421 11.5751 1.62732 6.69164 5.62701 3.58344C9.35279 0.942423 15.2512 0.412469 19.8389 1.87386ZM47.2545 11.7328C46.7368 8.56036 45.0732 5.63757 42.261 3.45935C39.7097 1.47092 36.2693 0.754096 32.6066 0.87819C27.355 1.09572 22.915 4.39224 21.2156 8.31071C19.9579 11.1079 19.8819 14.7461 21.1038 17.5433C22.4346 21.2764 26.4673 24.4152 30.9073 25.5043C35.4921 26.4679 40.117 25.1306 43.0411 22.3334C46.2205 19.596 47.6245 15.8352 47.2545 11.7328ZM40.9301 19.4427C39.4143 21.8355 36.3052 23.2035 32.8662 22.8297C30.3867 22.5509 28.5754 21.2443 27.2059 19.5332C25.0604 16.8294 24.3936 13.2861 25.0246 9.89474C25.4706 6.91063 28.2427 4.48422 31.6458 3.80097C35.0489 3.11772 38.3789 4.26669 40.1916 6.50769L41.2643 8.06106C43.2605 11.4189 42.8533 16.1462 40.9301 19.4427Z" fill="black"/>
</g>
<defs>
<clipPath id="clip0_50_34">
<rect width="97" height="25" fill="white" transform="translate(0.558594 0.864624)"/>
</clipPath>
</defs>
</svg>
