<svg width="101" height="26" viewBox="0 0 101 26" fill="none" xmlns="http://www.w3.org/2000/svg">
<path d="M20.5 1.36462H5.5C3.01472 1.36462 1 3.37934 1 5.86462V20.8646C1 23.3499 3.01472 25.3646 5.5 25.3646H20.5C22.9853 25.3646 25 23.3499 25 20.8646V5.86462C25 3.37934 22.9853 1.36462 20.5 1.36462Z" stroke="black"/>
<path d="M8.2168 5.68697C7.86914 5.68697 7.56055 5.75527 7.29102 5.89197C7.02539 6.02487 6.80078 6.21817 6.61719 6.47207C6.4375 6.72597 6.30078 7.03267 6.20703 7.39197C6.11328 7.75137 6.06641 8.15567 6.06641 8.60487C6.06641 9.21037 6.14062 9.72797 6.28906 10.1577C6.44141 10.5835 6.67578 10.9096 6.99219 11.1362C7.30859 11.3588 7.7168 11.4702 8.2168 11.4702C8.56445 11.4702 8.91211 11.4311 9.25977 11.353C9.61133 11.2749 9.99219 11.1635 10.4023 11.019V12.5424C10.0234 12.6987 9.65039 12.81 9.2832 12.8764C8.91602 12.9467 8.50391 12.9819 8.04688 12.9819C7.16406 12.9819 6.4375 12.8002 5.86719 12.437C5.30078 12.0698 4.88086 11.5581 4.60742 10.9018C4.33398 10.2417 4.19727 9.47207 4.19727 8.59317C4.19727 7.94477 4.28516 7.35097 4.46094 6.81197C4.63672 6.27287 4.89453 5.80607 5.23438 5.41157C5.57422 5.01697 5.99414 4.71237 6.49414 4.49747C6.99414 4.28267 7.56836 4.17517 8.2168 4.17517C8.64258 4.17517 9.06836 4.22987 9.49414 4.33927C9.92383 4.44477 10.334 4.59127 10.7246 4.77877L10.1387 6.25527C9.81836 6.10297 9.49609 5.97017 9.17188 5.85687C8.84766 5.74357 8.5293 5.68697 8.2168 5.68697Z" fill="black"/>
<path d="M41.292 6.92033C40.4229 6.92033 39.6514 7.09123 38.9775 7.43303C38.3135 7.76503 37.752 8.24843 37.293 8.88323C36.8438 9.51793 36.502 10.2845 36.2676 11.183C36.0332 12.0814 35.916 13.0921 35.916 14.2152C35.916 15.7289 36.1016 17.0228 36.4727 18.097C36.8535 19.1615 37.4395 19.9769 38.2305 20.5433C39.0215 21.1 40.042 21.3783 41.292 21.3783C42.1611 21.3783 43.0303 21.2806 43.8994 21.0853C44.7783 20.89 45.7305 20.6117 46.7559 20.2503V24.0589C45.8086 24.4496 44.876 24.7279 43.958 24.8939C43.04 25.0697 42.0098 25.1576 40.8672 25.1576C38.6602 25.1576 36.8438 24.7035 35.418 23.7953C34.002 22.8773 32.9521 21.598 32.2686 19.9574C31.585 18.307 31.2432 16.3832 31.2432 14.1859C31.2432 12.5648 31.4629 11.0804 31.9023 9.73283C32.3418 8.38513 32.9863 7.21812 33.8359 6.23182C34.6855 5.24552 35.7354 4.48372 36.9854 3.94662C38.2354 3.40952 39.6709 3.14102 41.292 3.14102C42.3564 3.14102 43.4209 3.27772 44.4854 3.55112C45.5596 3.81482 46.585 4.18103 47.5615 4.64983L46.0967 8.34122C45.2959 7.96032 44.4902 7.62832 43.6797 7.34513C42.8691 7.06193 42.0732 6.92033 41.292 6.92033ZM64.9539 8.48763V24.8646H61.5262L60.9256 22.7699H60.6912C60.3396 23.3265 59.9002 23.7806 59.3729 24.1322C58.8455 24.4837 58.2645 24.7425 57.6297 24.9085C56.9949 25.0746 56.3357 25.1576 55.6521 25.1576C54.4803 25.1576 53.4598 24.9525 52.5906 24.5423C51.7215 24.1224 51.0428 23.473 50.5545 22.5941C50.076 21.7152 49.8367 20.5726 49.8367 19.1664V8.48763H54.3045V18.0531C54.3045 19.225 54.5145 20.1087 54.9344 20.7044C55.3543 21.3001 56.0232 21.598 56.9412 21.598C57.8494 21.598 58.5623 21.3929 59.0799 20.9828C59.5975 20.5628 59.9588 19.9525 60.1639 19.1517C60.3787 18.3412 60.4861 17.3548 60.4861 16.1927V8.48763H64.9539ZM73.0592 2.07166V7.37442C73.0592 7.98962 73.0396 8.60002 73.0006 9.20542C72.9713 9.81092 72.9322 10.2796 72.8834 10.6117H73.0592C73.4889 9.93783 74.0748 9.36662 74.817 8.89782C75.5592 8.41932 76.5211 8.18003 77.7027 8.18003C79.5387 8.18003 81.0279 8.89782 82.1705 10.3334C83.3131 11.7689 83.8844 13.8734 83.8844 16.6468C83.8844 18.5121 83.6207 20.0794 83.0934 21.349C82.566 22.6087 81.8287 23.5609 80.8814 24.2054C79.9342 24.8402 78.8355 25.1576 77.5855 25.1576C76.3844 25.1576 75.4371 24.9427 74.7438 24.513C74.0504 24.0834 73.4889 23.6 73.0592 23.0628H72.7516L72.0045 24.8646H68.5914V2.07166H73.0592ZM76.2672 11.7542C75.4859 11.7542 74.8658 11.9154 74.4068 12.2376C73.9479 12.5599 73.6109 13.0433 73.3961 13.6878C73.191 14.3324 73.0787 15.1478 73.0592 16.1341V16.6175C73.0592 18.2093 73.2936 19.43 73.7623 20.2796C74.2311 21.1195 75.0855 21.5394 76.3258 21.5394C77.2438 21.5394 77.9713 21.1146 78.5084 20.265C79.0553 19.4154 79.3287 18.1898 79.3287 16.5882C79.3287 14.9867 79.0553 13.7806 78.5084 12.9701C77.9615 12.1595 77.2145 11.7542 76.2672 11.7542ZM93.2787 8.18003C94.7924 8.18003 96.0961 8.47302 97.1898 9.05892C98.2836 9.63512 99.1283 10.475 99.724 11.5785C100.32 12.682 100.618 14.0296 100.618 15.6214V17.7894H90.0561C90.1049 19.0492 90.4809 20.0404 91.184 20.763C91.8969 21.4759 92.8832 21.8324 94.143 21.8324C95.1879 21.8324 96.1449 21.725 97.0141 21.5101C97.8832 21.2953 98.7768 20.973 99.6947 20.5433V24.0003C98.8842 24.4007 98.0346 24.6937 97.1459 24.8792C96.267 25.0648 95.1977 25.1576 93.9379 25.1576C92.2973 25.1576 90.8422 24.8548 89.5727 24.2494C88.3129 23.6439 87.3217 22.721 86.599 21.4808C85.8861 20.2406 85.5297 18.6781 85.5297 16.7933C85.5297 14.8792 85.852 13.2875 86.4965 12.0179C87.1508 10.7386 88.059 9.78162 89.2211 9.14682C90.3832 8.50233 91.7357 8.18003 93.2787 8.18003ZM93.308 11.3587C92.4389 11.3587 91.7162 11.6371 91.14 12.1937C90.5736 12.7503 90.2465 13.6244 90.1586 14.8158H96.4281C96.4184 14.1517 96.2963 13.5609 96.0619 13.0433C95.8373 12.5257 95.4955 12.1156 95.0365 11.8128C94.5873 11.5101 94.0111 11.3587 93.308 11.3587Z" fill="black"/>
</svg>
