<svg width="100" height="100" viewBox="0 0 100 100" fill="none" xmlns="http://www.w3.org/2000/svg">
<g clip-path="url(#clip0_50_102)">
<path d="M89.0625 98C84.1344 98 80.125 93.9906 80.125 89.0625C80.125 84.1344 84.1344 80.125 89.0625 80.125C93.9906 80.125 98 84.1344 98 89.0625C98 93.9906 93.9906 98 89.0625 98ZM89.0625 82.375C85.375 82.375 82.375 85.375 82.375 89.0625C82.375 92.75 85.375 95.75 89.0625 95.75C92.75 95.75 95.75 92.75 95.75 89.0625C95.75 85.375 92.75 82.375 89.0625 82.375ZM50 98C45.0719 98 41.0625 93.9906 41.0625 89.0625C41.0625 84.1344 45.0719 80.125 50 80.125C54.9281 80.125 58.9375 84.1344 58.9375 89.0625C58.9375 93.9906 54.9281 98 50 98ZM50 82.375C46.3125 82.375 43.3125 85.375 43.3125 89.0625C43.3125 92.75 46.3125 95.75 50 95.75C53.6875 95.75 56.6875 92.75 56.6875 89.0625C56.6875 85.375 53.6875 82.375 50 82.375ZM10.9375 98C6.00938 98 2 93.9906 2 89.0625C2 84.1344 6.00938 80.125 10.9375 80.125C15.8656 80.125 19.875 84.1344 19.875 89.0625C19.875 93.9906 15.8656 98 10.9375 98ZM10.9375 82.375C7.25 82.375 4.25 85.375 4.25 89.0625C4.25 92.75 7.25 95.75 10.9375 95.75C14.625 95.75 17.625 92.75 17.625 89.0625C17.625 85.375 14.625 82.375 10.9375 82.375ZM68.75 69.875H31.25C30.6281 69.875 30.125 69.3719 30.125 68.75V31.25C30.125 30.6281 30.6281 30.125 31.25 30.125H68.75C69.3719 30.125 69.875 30.6281 69.875 31.25V68.75C69.875 69.3719 69.3719 69.875 68.75 69.875ZM32.375 67.625H67.625V44.875H32.375V67.625ZM32.375 42.625H67.625V32.375H32.375V42.625ZM89.0625 58.9375C84.1344 58.9375 80.125 54.9281 80.125 50C80.125 45.0719 84.1344 41.0625 89.0625 41.0625C93.9906 41.0625 98 45.0719 98 50C98 54.9281 93.9906 58.9375 89.0625 58.9375ZM89.0625 43.3125C85.375 43.3125 82.375 46.3125 82.375 50C82.375 53.6875 85.375 56.6875 89.0625 56.6875C92.75 56.6875 95.75 53.6875 95.75 50C95.75 46.3125 92.75 43.3125 89.0625 43.3125ZM10.9375 58.9375C6.00938 58.9375 2 54.9281 2 50C2 45.0719 6.00938 41.0625 10.9375 41.0625C15.8656 41.0625 19.875 45.0719 19.875 50C19.875 54.9281 15.8656 58.9375 10.9375 58.9375ZM10.9375 43.3125C7.25 43.3125 4.25 46.3125 4.25 50C4.25 53.6875 7.25 56.6875 10.9375 56.6875C14.625 56.6875 17.625 53.6875 17.625 50C17.625 46.3125 14.625 43.3125 10.9375 43.3125ZM62.5 57.375H37.5V55.125H62.5V57.375ZM89.0625 19.875C84.1344 19.875 80.125 15.8656 80.125 10.9375C80.125 6.00938 84.1344 2 89.0625 2C93.9906 2 98 6.00938 98 10.9375C98 15.8656 93.9906 19.875 89.0625 19.875ZM89.0625 4.25C85.375 4.25 82.375 7.25 82.375 10.9375C82.375 14.625 85.375 17.625 89.0625 17.625C92.75 17.625 95.75 14.625 95.75 10.9375C95.75 7.25 92.75 4.25 89.0625 4.25ZM50 19.875C45.0719 19.875 41.0625 15.8656 41.0625 10.9375C41.0625 6.00938 45.0719 2 50 2C54.9281 2 58.9375 6.00938 58.9375 10.9375C58.9375 15.8656 54.9281 19.875 50 19.875ZM50 4.25C46.3125 4.25 43.3125 7.25 43.3125 10.9375C43.3125 14.625 46.3125 17.625 50 17.625C53.6875 17.625 56.6875 14.625 56.6875 10.9375C56.6875 7.25 53.6875 4.25 50 4.25ZM10.9375 19.875C6.00938 19.875 2 15.8656 2 10.9375C2 6.00938 6.00938 2 10.9375 2C15.8656 2 19.875 6.00938 19.875 10.9375C19.875 15.8656 15.8656 19.875 10.9375 19.875ZM10.9375 4.25C7.25 4.25 4.25 7.25 4.25 10.9375C4.25 14.625 7.25 17.625 10.9375 17.625C14.625 17.625 17.625 14.625 17.625 10.9375C17.625 7.25 14.625 4.25 10.9375 4.25ZM62.5 35.9375C61.6375 35.9375 60.9375 36.6375 60.9375 37.5C60.9375 38.3625 61.6375 39.0625 62.5 39.0625C63.3625 39.0625 64.0625 38.3625 64.0625 37.5C64.0625 36.6375 63.3625 35.9375 62.5 35.9375Z" fill="black"/>
</g>
<defs>
<clipPath id="clip0_50_102">
<rect width="100" height="100" fill="white"/>
</clipPath>
</defs>
</svg>
