<svg width="96" height="96" viewBox="0 0 96 96" fill="none" xmlns="http://www.w3.org/2000/svg">
<path d="M94.875 96H1.125V93.75H94.875V96ZM96 73V1.125C96 0.503125 95.4969 0 94.875 0H1.125C0.503125 0 0 0.503125 0 1.125V73C0 73.6219 0.503125 74.125 1.125 74.125H94.875C95.4969 74.125 96 73.6219 96 73ZM2.25 2.25H93.75V71.875H2.25V2.25ZM49.2562 51.6531C54.3312 51.6531 58.0531 48.9844 59.9812 44.6906L57.0469 42.8531C55.8187 46.1781 53.1531 48.3687 49.2562 48.3687C44 48.3687 40.8937 44.5594 40.8937 38.3V33.75C40.8937 27.4875 44 23.3312 49.2562 23.3312C53.0187 23.3312 55.5563 25.3875 56.7844 28.5406L59.7625 26.7469C57.8344 22.5 54.3312 20.0469 49.2562 20.0469C41.55 20.0469 36.9531 25.825 36.9531 36.0219C36.9531 46.2281 41.55 51.6531 49.2562 51.6531Z" fill="black"/>
</svg>
