<svg width="99" height="25" viewBox="0 0 99 25" fill="none" xmlns="http://www.w3.org/2000/svg">
<path d="M15.4386 24.1447V2.44466H11.0986V10.8147H4.89859V2.44466H0.558594V24.1447H4.89859V14.1627H11.0986V24.1447H15.4386ZM33.0667 15.9297C33.0667 8.55166 28.9747 7.40466 25.5647 7.40466C22.1237 7.40466 18.0627 8.76866 18.0627 15.9297C18.0627 23.2767 22.2477 24.4547 25.5647 24.4547C28.8507 24.4547 33.0667 23.3697 33.0667 15.9297ZM28.7267 15.9297C28.7267 20.7967 26.9597 21.3547 25.5647 21.3547C24.1697 21.3547 22.4027 20.7657 22.4027 15.9297C22.4027 11.0317 23.8597 10.4737 25.5647 10.4737C27.2697 10.4737 28.7267 10.8457 28.7267 15.9297ZM39.9008 24.1447V1.82466H35.5608V24.1447H39.9008ZM48.365 2.90966C48.365 1.48366 47.249 0.274658 45.792 0.274658C44.335 0.274658 43.219 1.48366 43.219 2.90966C43.219 4.33566 44.335 5.54466 45.792 5.54466C47.249 5.54466 48.365 4.33566 48.365 2.90966ZM47.962 24.1447V7.71466H43.622V24.1447H47.962ZM61.5649 19.1537C61.5649 16.4877 59.9839 15.2477 58.3099 14.5967L56.7599 14.0077C55.4269 13.5117 54.4659 13.1707 54.4659 12.2097C54.4659 11.2177 55.1789 10.8147 56.8529 10.8147C57.5969 10.8147 59.2399 11.1247 60.8829 11.5587V8.17966C59.5809 7.68366 57.9999 7.40466 56.6669 7.40466C53.4119 7.40466 50.2809 8.45866 50.2809 12.5197C50.2809 15.4647 52.2339 16.6427 53.9079 17.2317L55.2099 17.6967C56.3879 18.1307 57.3489 18.5027 57.3489 19.5257C57.3489 20.7037 56.3259 21.0137 54.9309 21.0137C54.1559 21.0137 52.5749 20.7037 50.5909 20.1767V23.6797C52.1719 24.1447 53.8769 24.4547 55.1479 24.4547C58.2169 24.4547 61.5649 23.8347 61.5649 19.1537ZM72.8746 23.7417V20.4557C71.7896 20.7347 70.3016 21.0137 69.8986 21.0137C69.3406 21.0137 68.8446 20.8897 68.8446 19.9597V10.6287H72.1306L72.5646 7.71466H68.8446V2.75466L64.8146 4.08766L64.5046 7.71466H61.7146V10.6287H64.5046V20.0217C64.5046 23.8967 66.7676 24.4547 68.9996 24.4547C70.1776 24.4547 71.6966 24.1757 72.8746 23.7417ZM83.2012 7.59066C82.7052 7.46666 81.9612 7.40466 81.3722 7.40466C80.1632 7.40466 79.0782 8.11766 78.3032 9.35766L77.7452 7.71466H74.2732V24.1447H78.6132V11.9927C79.3572 11.6207 80.1632 11.4037 80.7212 11.4037C81.1862 11.4037 82.2712 11.5277 83.2012 11.7137V7.59066ZM98.3653 15.9297C98.3653 8.55166 94.2733 7.40466 90.8633 7.40466C87.4223 7.40466 83.3613 8.76866 83.3613 15.9297C83.3613 23.2767 87.5463 24.4547 90.8633 24.4547C94.1493 24.4547 98.3653 23.3697 98.3653 15.9297ZM94.0253 15.9297C94.0253 20.7967 92.2583 21.3547 90.8633 21.3547C89.4683 21.3547 87.7013 20.7657 87.7013 15.9297C87.7013 11.0317 89.1583 10.4737 90.8633 10.4737C92.5683 10.4737 94.0253 10.8457 94.0253 15.9297Z" fill="black"/>
</svg>
