<svg width="59" height="25" viewBox="0 0 59 25" fill="none" xmlns="http://www.w3.org/2000/svg">
<path d="M51.1429 22.2963C51.1429 10.5347 41.7089 1 30.0714 1C18.434 1 9 10.5347 9 22.2963" stroke="#1E1B1B" stroke-width="2"/>
<path d="M0 25H59V23H0V25Z" fill="#1E1B1B"/>
<path d="M27 14C27 15.6569 25.6569 17 24 17C22.3431 17 21 15.6569 21 14C21 12.3431 22.3431 11 24 11C25.6569 11 27 12.3431 27 14Z" stroke="black" stroke-width="2"/>
<path d="M39 14C39 15.6569 37.6569 17 36 17C34.3431 17 33 15.6569 33 14C33 12.3431 34.3431 11 36 11C37.6569 11 39 12.3431 39 14Z" stroke="black" stroke-width="2"/>
</svg>
