<svg width="150" height="21" viewBox="0 0 150 21" fill="none" xmlns="http://www.w3.org/2000/svg">
<path d="M43.2661 19.8647V0.521729H39.8151L33.7831 15.0797L27.7801 0.521729H24.3291V19.8647H26.7361V3.94373L33.2901 19.8647H34.2761L40.8591 3.94373V19.8647H43.2661ZM57.6093 19.8647V10.2367C57.6093 6.84373 55.1443 5.50973 52.1863 5.50973C49.8953 5.50973 48.0973 6.26373 46.5893 7.82973L47.6043 9.33773C48.8513 8.00373 50.2143 7.39473 51.8963 7.39473C53.9263 7.39473 55.4343 8.46773 55.4343 10.3527V12.8757C54.3033 11.5707 52.7083 10.9617 50.7943 10.9617C48.4163 10.9617 45.8933 12.4407 45.8933 15.5727C45.8933 18.6177 48.4163 20.2127 50.7943 20.2127C52.6793 20.2127 54.2743 19.5457 55.4343 18.2697V19.8647H57.6093ZM51.5773 18.6467C49.5473 18.6467 48.1263 17.3707 48.1263 15.6017C48.1263 13.8037 49.5473 12.5277 51.5773 12.5277C53.1143 12.5277 54.5933 13.1077 55.4343 14.2677V16.9067C54.5933 18.0667 53.1143 18.6467 51.5773 18.6467ZM63.1293 19.8647V9.94673C63.7673 8.81573 65.5943 7.71373 66.9283 7.71373C67.2763 7.71373 67.5373 7.74273 67.7983 7.80073V5.56773C65.8843 5.56773 64.2603 6.64073 63.1293 8.11973V5.85773H60.9543V19.8647H63.1293ZM81.8366 19.8647L75.6016 12.2087L81.8076 5.85773H79.0526L71.6866 13.3107V0.521729H69.5116V19.8647H71.6866V15.8627L74.0066 13.5717L79.0526 19.8647H81.8366ZM89.6301 20.2127C91.9211 20.2127 93.8061 19.4587 95.1981 18.0667L94.1541 16.6457C93.0521 17.7767 91.4281 18.4147 89.8331 18.4147C86.8171 18.4147 84.9611 16.2107 84.7871 13.5717H96.1261V13.0207C96.1261 8.81573 93.6321 5.50973 89.3981 5.50973C85.3961 5.50973 82.4961 8.78673 82.4961 12.8467C82.4961 17.2257 85.4831 20.2127 89.6301 20.2127ZM93.9801 11.9767H84.7871C84.9031 9.83073 86.3821 7.30773 89.3691 7.30773C92.5591 7.30773 93.9511 9.88873 93.9801 11.9767ZM102.172 20.2127C103.448 20.2127 104.231 19.8357 104.782 19.3137L104.144 17.6897C103.854 18.0087 103.274 18.2697 102.665 18.2697C101.708 18.2697 101.244 17.5157 101.244 16.4717V7.77173H104.086V5.85773H101.244V2.02973H99.0691V5.85773H96.7489V7.77173H99.0691V16.9357C99.0691 19.0237 100.113 20.2127 102.172 20.2127ZM112.465 20.2127C114.756 20.2127 116.641 19.4587 118.033 18.0667L116.989 16.6457C115.887 17.7767 114.263 18.4147 112.668 18.4147C109.652 18.4147 107.796 16.2107 107.622 13.5717H118.961V13.0207C118.961 8.81573 116.467 5.50973 112.233 5.50973C108.231 5.50973 105.331 8.78673 105.331 12.8467C105.331 17.2257 108.318 20.2127 112.465 20.2127ZM116.815 11.9767H107.622C107.738 9.83073 109.217 7.30773 112.204 7.30773C115.394 7.30773 116.786 9.88873 116.815 11.9767ZM127.791 20.2127C130.082 20.2127 131.967 19.4587 133.359 18.0667L132.315 16.6457C131.213 17.7767 129.589 18.4147 127.994 18.4147C124.978 18.4147 123.122 16.2107 122.948 13.5717H134.287V13.0207C134.287 8.81573 131.793 5.50973 127.559 5.50973C123.557 5.50973 120.657 8.78673 120.657 12.8467C120.657 17.2257 123.644 20.2127 127.791 20.2127ZM132.141 11.9767H122.948C123.064 9.83073 124.543 7.30773 127.53 7.30773C130.72 7.30773 132.112 9.88873 132.141 11.9767ZM142.914 20.2127C147.177 20.2127 149.845 16.9067 149.845 12.8467C149.845 8.78673 147.177 5.50973 142.914 5.50973C138.651 5.50973 135.983 8.78673 135.983 12.8467C135.983 16.9067 138.651 20.2127 142.914 20.2127ZM142.914 18.2697C139.927 18.2697 138.245 15.7177 138.245 12.8467C138.245 10.0047 139.927 7.45273 142.914 7.45273C145.901 7.45273 147.554 10.0047 147.554 12.8467C147.554 15.7177 145.901 18.2697 142.914 18.2697Z" fill="black"/>
<path d="M8.41089 0.302246H18.4733C19.6952 0.302246 20.6296 1.23662 20.6296 2.4585V14.6772C20.6296 14.9647 20.4859 15.1803 20.2702 15.3241C20.1265 15.3959 20.0546 15.3959 19.9109 15.3959C19.7671 15.3959 19.6234 15.3241 19.5515 15.2522L14.1609 11.8022H8.41089C7.18901 11.8022 6.25464 10.8678 6.25464 9.64595V2.4585C6.25464 1.23662 7.18901 0.302246 8.41089 0.302246ZM14.8796 8.20855H16.3171C16.7484 8.20855 17.0359 7.92105 17.0359 7.48975C17.0359 7.05845 16.7484 6.77095 16.3171 6.77095H14.8796C14.4483 6.77095 14.1609 7.05845 14.1609 7.48975C14.1609 7.92105 14.4483 8.20855 14.8796 8.20855ZM12.7233 5.33355H16.3171C16.7484 5.33355 17.0359 5.04605 17.0359 4.61475C17.0359 4.18345 16.7484 3.89595 16.3171 3.89595H12.7233C12.2921 3.89595 12.0046 4.18345 12.0046 4.61475C12.0046 5.04605 12.2921 5.33355 12.7233 5.33355Z" fill="black"/>
<path d="M2.66089 5.3335H4.81714V9.6459C4.81714 11.6584 6.39839 13.2397 8.41089 13.2397H13.7296L14.8796 13.9585V14.6772C14.8796 15.8991 13.9452 16.8335 12.7233 16.8335H6.97339L1.58276 20.2834C1.43901 20.3553 1.29527 20.4272 1.22339 20.4272C1.07964 20.4272 1.00777 20.4272 0.864019 20.3553C0.648389 20.2116 0.504639 19.996 0.504639 19.7085V7.4897C0.504639 6.2678 1.43901 5.3335 2.66089 5.3335Z" fill="black"/>
</svg>
