<svg width="90" height="90" viewBox="0 0 90 90" fill="none" xmlns="http://www.w3.org/2000/svg">
<path d="M88.75 89.875H70C69.3781 89.875 68.875 89.3719 68.875 88.75V80.5H55.5V88.75C55.5 89.3719 54.9969 89.875 54.375 89.875H35.625C35.0031 89.875 34.5 89.3719 34.5 88.75V80.5H21.125V88.75C21.125 89.3719 20.6219 89.875 20 89.875H1.25C0.628125 89.875 0.125 89.3719 0.125 88.75V70C0.125 69.3781 0.628125 68.875 1.25 68.875H9.5V55.5H1.25C0.628125 55.5 0.125 54.9969 0.125 54.375V35.625C0.125 35.0031 0.628125 34.5 1.25 34.5H9.5V21.125H1.25C0.628125 21.125 0.125 20.6219 0.125 20V1.25C0.125 0.628125 0.628125 0.125 1.25 0.125H20C20.6219 0.125 21.125 0.628125 21.125 1.25V9.5H34.5V1.25C34.5 0.628125 35.0031 0.125 35.625 0.125H54.375C54.9969 0.125 55.5 0.628125 55.5 1.25V9.5H68.8719V1.25C68.8719 0.628125 69.375 0.125 69.9969 0.125H88.7469C89.3687 0.125 89.8719 0.628125 89.8719 1.25V20C89.8719 20.6219 89.3687 21.125 88.7469 21.125H80.4969V34.5H88.75C89.3719 34.5 89.875 35.0031 89.875 35.625V54.375C89.875 54.9969 89.3719 55.5 88.75 55.5H80.5V68.8719H88.75C89.3719 68.8719 89.875 69.375 89.875 69.9969V88.7469C89.875 89.3719 89.3719 89.875 88.75 89.875ZM71.125 87.625H87.6219V71.125H71.125V87.625ZM36.75 87.625H53.25V71.125H36.75V87.625ZM2.375 87.625H18.875V71.125H2.375V87.625ZM55.5 78.25H68.8719V70C68.8719 69.3781 69.375 68.875 69.9969 68.875H78.2469V55.5H70C69.3781 55.5 68.875 54.9969 68.875 54.375V46.125H55.5V54.375C55.5 54.9969 54.9969 55.5 54.375 55.5H46.125V68.8719H54.375C54.9969 68.8719 55.5 69.375 55.5 69.9969V78.25ZM21.125 78.25H34.5V70C34.5 69.3781 35.0031 68.875 35.625 68.875H43.875V55.5H35.625C35.0031 55.5 34.5 54.9969 34.5 54.375V46.125H21.125V54.375C21.125 54.9969 20.6219 55.5 20 55.5H11.75V68.8719H20C20.6219 68.8719 21.125 69.375 21.125 69.9969V78.25ZM79.375 53.25H87.625V36.75H71.125V53.25H79.375ZM45 53.25H53.25V36.75H36.75V53.25H45ZM10.625 53.25H18.875V36.75H2.375V53.25H10.625ZM55.5 43.875H68.8719V35.625C68.8719 35.0031 69.375 34.5 69.9969 34.5H78.2469V21.125H70C69.3781 21.125 68.875 20.6219 68.875 20V11.75H55.5V20C55.5 20.6219 54.9969 21.125 54.375 21.125H46.125V34.5H54.375C54.9969 34.5 55.5 35.0031 55.5 35.625V43.875ZM21.125 43.875H34.5V35.625C34.5 35.0031 35.0031 34.5 35.625 34.5H43.875V21.125H35.625C35.0031 21.125 34.5 20.6219 34.5 20V11.75H21.125V20C21.125 20.6219 20.6219 21.125 20 21.125H11.75V34.5H20C20.6219 34.5 21.125 35.0031 21.125 35.625V43.875ZM79.375 18.875H87.625V2.375H71.125V18.875H79.375ZM45 18.875H53.25V2.375H36.75V18.875H45ZM10.625 18.875H18.875V2.375H2.375V18.875H10.625Z" fill="black"/>
</svg>
